<svg width="73" height="93" viewBox="0 0 73 93" fill="none" xmlns="http://www.w3.org/2000/svg">
<g clip-path="url(#clip0_2_67)">
<path d="M1.5 90.0319C2.32843 90.0319 3 90.6963 3 91.516C3 92.3356 2.32843 93 1.5 93C0.671573 93 0 92.3356 0 91.516C0 90.6963 0.671573 90.0319 1.5 90.0319Z" fill="white"/>
<path d="M1.5 77.1702C2.32843 77.1702 3 77.8346 3 78.6543C3 79.4739 2.32843 80.1383 1.5 80.1383C0.671573 80.1383 0 79.4739 0 78.6543C0 77.8346 0.671573 77.1702 1.5 77.1702Z" fill="white"/>
<path d="M1.5 64.3085C2.32843 64.3085 3 64.9729 3 65.7926C3 66.6122 2.32843 67.2766 1.5 67.2766C0.671573 67.2766 0 66.6122 0 65.7926C0 64.9729 0.671573 64.3085 1.5 64.3085Z" fill="white"/>
<path d="M1.5 51.4468C2.32843 51.4468 3 52.1112 3 52.9309C3 53.7505 2.32843 54.4149 1.5 54.4149C0.671573 54.4149 0 53.7505 0 52.9309C0 52.1112 0.671573 51.4468 1.5 51.4468Z" fill="white"/>
<path d="M1.5 38.5851C2.32843 38.5851 3 39.2495 3 40.0691C3 40.8888 2.32843 41.5532 1.5 41.5532C0.671573 41.5532 0 40.8888 0 40.0691C0 39.2495 0.671573 38.5851 1.5 38.5851Z" fill="white"/>
<path d="M1.5 25.7234C2.32843 25.7234 3 26.3878 3 27.2074C3 28.0271 2.32843 28.6915 1.5 28.6915C0.671573 28.6915 0 28.0271 0 27.2074C0 26.3878 0.671573 25.7234 1.5 25.7234Z" fill="white"/>
<path d="M1.5 12.8617C2.32843 12.8617 3 13.5261 3 14.3457C3 15.1654 2.32843 15.8298 1.5 15.8298C0.671573 15.8298 0 15.1654 0 14.3457C0 13.5261 0.671573 12.8617 1.5 12.8617Z" fill="white"/>
<path d="M1.5 3.8147e-05C2.32843 3.8147e-05 3 0.664439 3 1.48404C3 2.30374 2.32843 2.96814 1.5 2.96814C0.671573 2.96814 0 2.30374 0 1.48404C0 0.664439 0.671573 3.8147e-05 1.5 3.8147e-05Z" fill="white"/>
<path d="M11.5 90.0319C12.3284 90.0319 13 90.6963 13 91.516C13 92.3356 12.3284 93 11.5 93C10.6716 93 10 92.3356 10 91.516C10 90.6963 10.6716 90.0319 11.5 90.0319Z" fill="white"/>
<path d="M11.5 77.1702C12.3284 77.1702 13 77.8346 13 78.6543C13 79.4739 12.3284 80.1383 11.5 80.1383C10.6716 80.1383 10 79.4739 10 78.6543C10 77.8346 10.6716 77.1702 11.5 77.1702Z" fill="white"/>
<path d="M11.5 64.3085C12.3284 64.3085 13 64.9729 13 65.7926C13 66.6122 12.3284 67.2766 11.5 67.2766C10.6716 67.2766 10 66.6122 10 65.7926C10 64.9729 10.6716 64.3085 11.5 64.3085Z" fill="white"/>
<path d="M11.5 51.4468C12.3284 51.4468 13 52.1112 13 52.9309C13 53.7505 12.3284 54.4149 11.5 54.4149C10.6716 54.4149 10 53.7505 10 52.9309C10 52.1112 10.6716 51.4468 11.5 51.4468Z" fill="white"/>
<path d="M11.5 38.5851C12.3284 38.5851 13 39.2495 13 40.0691C13 40.8888 12.3284 41.5532 11.5 41.5532C10.6716 41.5532 10 40.8888 10 40.0691C10 39.2495 10.6716 38.5851 11.5 38.5851Z" fill="white"/>
<path d="M11.5 25.7234C12.3284 25.7234 13 26.3878 13 27.2074C13 28.0271 12.3284 28.6915 11.5 28.6915C10.6716 28.6915 10 28.0271 10 27.2074C10 26.3878 10.6716 25.7234 11.5 25.7234Z" fill="white"/>
<path d="M11.5 12.8617C12.3284 12.8617 13 13.5261 13 14.3457C13 15.1654 12.3284 15.8298 11.5 15.8298C10.6716 15.8298 10 15.1654 10 14.3457C10 13.5261 10.6716 12.8617 11.5 12.8617Z" fill="white"/>
<path d="M11.5 3.8147e-05C12.3284 3.8147e-05 13 0.664439 13 1.48404C13 2.30374 12.3284 2.96814 11.5 2.96814C10.6716 2.96814 10 2.30374 10 1.48404C10 0.664439 10.6716 3.8147e-05 11.5 3.8147e-05Z" fill="white"/>
<path d="M21.5 90.0319C22.3284 90.0319 23 90.6963 23 91.516C23 92.3356 22.3284 93 21.5 93C20.6716 93 20 92.3356 20 91.516C20 90.6963 20.6716 90.0319 21.5 90.0319Z" fill="white"/>
<path d="M21.5 77.1702C22.3284 77.1702 23 77.8346 23 78.6543C23 79.4739 22.3284 80.1383 21.5 80.1383C20.6716 80.1383 20 79.4739 20 78.6543C20 77.8346 20.6716 77.1702 21.5 77.1702Z" fill="white"/>
<path d="M21.5 64.3085C22.3284 64.3085 23 64.9729 23 65.7926C23 66.6122 22.3284 67.2766 21.5 67.2766C20.6716 67.2766 20 66.6122 20 65.7926C20 64.9729 20.6716 64.3085 21.5 64.3085Z" fill="white"/>
<path d="M21.5 51.4468C22.3284 51.4468 23 52.1112 23 52.9309C23 53.7505 22.3284 54.4149 21.5 54.4149C20.6716 54.4149 20 53.7505 20 52.9309C20 52.1112 20.6716 51.4468 21.5 51.4468Z" fill="white"/>
<path d="M21.5 38.5851C22.3284 38.5851 23 39.2495 23 40.0691C23 40.8888 22.3284 41.5532 21.5 41.5532C20.6716 41.5532 20 40.8888 20 40.0691C20 39.2495 20.6716 38.5851 21.5 38.5851Z" fill="white"/>
<path d="M21.5 25.7234C22.3284 25.7234 23 26.3878 23 27.2074C23 28.0271 22.3284 28.6915 21.5 28.6915C20.6716 28.6915 20 28.0271 20 27.2074C20 26.3878 20.6716 25.7234 21.5 25.7234Z" fill="white"/>
<path d="M21.5 12.8617C22.3284 12.8617 23 13.5261 23 14.3457C23 15.1654 22.3284 15.8298 21.5 15.8298C20.6716 15.8298 20 15.1654 20 14.3457C20 13.5261 20.6716 12.8617 21.5 12.8617Z" fill="white"/>
<path d="M21.5 3.8147e-05C22.3284 3.8147e-05 23 0.664439 23 1.48404C23 2.30374 22.3284 2.96814 21.5 2.96814C20.6716 2.96814 20 2.30374 20 1.48404C20 0.664439 20.6716 3.8147e-05 21.5 3.8147e-05Z" fill="white"/>
<path d="M31.5 90.0319C32.3284 90.0319 33 90.6963 33 91.516C33 92.3356 32.3284 93 31.5 93C30.6716 93 30 92.3356 30 91.516C30 90.6963 30.6716 90.0319 31.5 90.0319Z" fill="white"/>
<path d="M31.5 77.1702C32.3284 77.1702 33 77.8346 33 78.6543C33 79.4739 32.3284 80.1383 31.5 80.1383C30.6716 80.1383 30 79.4739 30 78.6543C30 77.8346 30.6716 77.1702 31.5 77.1702Z" fill="white"/>
<path d="M31.5 64.3085C32.3284 64.3085 33 64.9729 33 65.7926C33 66.6122 32.3284 67.2766 31.5 67.2766C30.6716 67.2766 30 66.6122 30 65.7926C30 64.9729 30.6716 64.3085 31.5 64.3085Z" fill="white"/>
<path d="M31.5 51.4468C32.3284 51.4468 33 52.1112 33 52.9309C33 53.7505 32.3284 54.4149 31.5 54.4149C30.6716 54.4149 30 53.7505 30 52.9309C30 52.1112 30.6716 51.4468 31.5 51.4468Z" fill="white"/>
<path d="M31.5 38.5851C32.3284 38.5851 33 39.2495 33 40.0691C33 40.8888 32.3284 41.5532 31.5 41.5532C30.6716 41.5532 30 40.8888 30 40.0691C30 39.2495 30.6716 38.5851 31.5 38.5851Z" fill="white"/>
<path d="M31.5 25.7234C32.3284 25.7234 33 26.3878 33 27.2074C33 28.0271 32.3284 28.6915 31.5 28.6915C30.6716 28.6915 30 28.0271 30 27.2074C30 26.3878 30.6716 25.7234 31.5 25.7234Z" fill="white"/>
<path d="M31.5 12.8617C32.3284 12.8617 33 13.5261 33 14.3457C33 15.1654 32.3284 15.8298 31.5 15.8298C30.6716 15.8298 30 15.1654 30 14.3457C30 13.5261 30.6716 12.8617 31.5 12.8617Z" fill="white"/>
<path d="M31.5 3.8147e-05C32.3284 3.8147e-05 33 0.664439 33 1.48404C33 2.30374 32.3284 2.96814 31.5 2.96814C30.6716 2.96814 30 2.30374 30 1.48404C30 0.664439 30.6716 3.8147e-05 31.5 3.8147e-05Z" fill="white"/>
<path d="M41.5 90.0319C42.3284 90.0319 43 90.6963 43 91.516C43 92.3356 42.3284 93 41.5 93C40.6716 93 40 92.3356 40 91.516C40 90.6963 40.6716 90.0319 41.5 90.0319Z" fill="white"/>
<path d="M41.5 77.1702C42.3284 77.1702 43 77.8346 43 78.6543C43 79.4739 42.3284 80.1383 41.5 80.1383C40.6716 80.1383 40 79.4739 40 78.6543C40 77.8346 40.6716 77.1702 41.5 77.1702Z" fill="white"/>
<path d="M41.5 64.3085C42.3284 64.3085 43 64.9729 43 65.7926C43 66.6122 42.3284 67.2766 41.5 67.2766C40.6716 67.2766 40 66.6122 40 65.7926C40 64.9729 40.6716 64.3085 41.5 64.3085Z" fill="white"/>
<path d="M41.5 51.4468C42.3284 51.4468 43 52.1112 43 52.9309C43 53.7505 42.3284 54.4149 41.5 54.4149C40.6716 54.4149 40 53.7505 40 52.9309C40 52.1112 40.6716 51.4468 41.5 51.4468Z" fill="white"/>
<path d="M41.5 38.5851C42.3284 38.5851 43 39.2495 43 40.0691C43 40.8888 42.3284 41.5532 41.5 41.5532C40.6716 41.5532 40 40.8888 40 40.0691C40 39.2495 40.6716 38.5851 41.5 38.5851Z" fill="white"/>
<path d="M41.5 25.7234C42.3284 25.7234 43 26.3878 43 27.2074C43 28.0271 42.3284 28.6915 41.5 28.6915C40.6716 28.6915 40 28.0271 40 27.2074C40 26.3878 40.6716 25.7234 41.5 25.7234Z" fill="white"/>
<path d="M41.5 12.8617C42.3284 12.8617 43 13.5261 43 14.3457C43 15.1654 42.3284 15.8298 41.5 15.8298C40.6716 15.8298 40 15.1654 40 14.3457C40 13.5261 40.6716 12.8617 41.5 12.8617Z" fill="white"/>
<path d="M41.5 3.8147e-05C42.3284 3.8147e-05 43 0.664439 43 1.48404C43 2.30374 42.3284 2.96814 41.5 2.96814C40.6716 2.96814 40 2.30374 40 1.48404C40 0.664439 40.6716 3.8147e-05 41.5 3.8147e-05Z" fill="white"/>
<path d="M51.5 90.0319C52.3284 90.0319 53 90.6963 53 91.516C53 92.3356 52.3284 93 51.5 93C50.6716 93 50 92.3356 50 91.516C50 90.6963 50.6716 90.0319 51.5 90.0319Z" fill="white"/>
<path d="M51.5 77.1702C52.3284 77.1702 53 77.8346 53 78.6543C53 79.4739 52.3284 80.1383 51.5 80.1383C50.6716 80.1383 50 79.4739 50 78.6543C50 77.8346 50.6716 77.1702 51.5 77.1702Z" fill="white"/>
<path d="M51.5 64.3085C52.3284 64.3085 53 64.9729 53 65.7926C53 66.6122 52.3284 67.2766 51.5 67.2766C50.6716 67.2766 50 66.6122 50 65.7926C50 64.9729 50.6716 64.3085 51.5 64.3085Z" fill="white"/>
<path d="M51.5 51.4468C52.3284 51.4468 53 52.1112 53 52.9309C53 53.7505 52.3284 54.4149 51.5 54.4149C50.6716 54.4149 50 53.7505 50 52.9309C50 52.1112 50.6716 51.4468 51.5 51.4468Z" fill="white"/>
<path d="M51.5 38.5851C52.3284 38.5851 53 39.2495 53 40.0691C53 40.8888 52.3284 41.5532 51.5 41.5532C50.6716 41.5532 50 40.8888 50 40.0691C50 39.2495 50.6716 38.5851 51.5 38.5851Z" fill="white"/>
<path d="M51.5 25.7234C52.3284 25.7234 53 26.3878 53 27.2074C53 28.0271 52.3284 28.6915 51.5 28.6915C50.6716 28.6915 50 28.0271 50 27.2074C50 26.3878 50.6716 25.7234 51.5 25.7234Z" fill="white"/>
<path d="M51.5 12.8617C52.3284 12.8617 53 13.5261 53 14.3457C53 15.1654 52.3284 15.8298 51.5 15.8298C50.6716 15.8298 50 15.1654 50 14.3457C50 13.5261 50.6716 12.8617 51.5 12.8617Z" fill="white"/>
<path d="M51.5 3.8147e-05C52.3284 3.8147e-05 53 0.664439 53 1.48404C53 2.30374 52.3284 2.96814 51.5 2.96814C50.6716 2.96814 50 2.30374 50 1.48404C50 0.664439 50.6716 3.8147e-05 51.5 3.8147e-05Z" fill="white"/>
<path d="M61.5 90.0319C62.3284 90.0319 63 90.6963 63 91.516C63 92.3356 62.3284 93 61.5 93C60.6716 93 60 92.3356 60 91.516C60 90.6963 60.6716 90.0319 61.5 90.0319Z" fill="white"/>
<path d="M61.5 77.1702C62.3284 77.1702 63 77.8346 63 78.6543C63 79.4739 62.3284 80.1383 61.5 80.1383C60.6716 80.1383 60 79.4739 60 78.6543C60 77.8346 60.6716 77.1702 61.5 77.1702Z" fill="white"/>
<path d="M61.5 64.3085C62.3284 64.3085 63 64.9729 63 65.7926C63 66.6122 62.3284 67.2766 61.5 67.2766C60.6716 67.2766 60 66.6122 60 65.7926C60 64.9729 60.6716 64.3085 61.5 64.3085Z" fill="white"/>
<path d="M61.5 51.4468C62.3284 51.4468 63 52.1112 63 52.9309C63 53.7505 62.3284 54.4149 61.5 54.4149C60.6716 54.4149 60 53.7505 60 52.9309C60 52.1112 60.6716 51.4468 61.5 51.4468Z" fill="white"/>
<path d="M61.5 38.5851C62.3284 38.5851 63 39.2495 63 40.0691C63 40.8888 62.3284 41.5532 61.5 41.5532C60.6716 41.5532 60 40.8888 60 40.0691C60 39.2495 60.6716 38.5851 61.5 38.5851Z" fill="white"/>
<path d="M61.5 25.7234C62.3284 25.7234 63 26.3878 63 27.2074C63 28.0271 62.3284 28.6915 61.5 28.6915C60.6716 28.6915 60 28.0271 60 27.2074C60 26.3878 60.6716 25.7234 61.5 25.7234Z" fill="white"/>
<path d="M61.5 12.8617C62.3284 12.8617 63 13.5261 63 14.3457C63 15.1654 62.3284 15.8298 61.5 15.8298C60.6716 15.8298 60 15.1654 60 14.3457C60 13.5261 60.6716 12.8617 61.5 12.8617Z" fill="white"/>
<path d="M61.5 3.8147e-05C62.3284 3.8147e-05 63 0.664439 63 1.48404C63 2.30374 62.3284 2.96814 61.5 2.96814C60.6716 2.96814 60 2.30374 60 1.48404C60 0.664439 60.6716 3.8147e-05 61.5 3.8147e-05Z" fill="white"/>
<path d="M71.5 90.0319C72.3284 90.0319 73 90.6963 73 91.516C73 92.3356 72.3284 93 71.5 93C70.6716 93 70 92.3356 70 91.516C70 90.6963 70.6716 90.0319 71.5 90.0319Z" fill="white"/>
<path d="M71.5 77.1702C72.3284 77.1702 73 77.8346 73 78.6543C73 79.4739 72.3284 80.1383 71.5 80.1383C70.6716 80.1383 70 79.4739 70 78.6543C70 77.8346 70.6716 77.1702 71.5 77.1702Z" fill="white"/>
<path d="M71.5 64.3085C72.3284 64.3085 73 64.9729 73 65.7926C73 66.6122 72.3284 67.2766 71.5 67.2766C70.6716 67.2766 70 66.6122 70 65.7926C70 64.9729 70.6716 64.3085 71.5 64.3085Z" fill="white"/>
<path d="M71.5 51.4468C72.3284 51.4468 73 52.1112 73 52.9309C73 53.7505 72.3284 54.4149 71.5 54.4149C70.6716 54.4149 70 53.7505 70 52.9309C70 52.1112 70.6716 51.4468 71.5 51.4468Z" fill="white"/>
<path d="M71.5 38.5851C72.3284 38.5851 73 39.2495 73 40.0691C73 40.8888 72.3284 41.5532 71.5 41.5532C70.6716 41.5532 70 40.8888 70 40.0691C70 39.2495 70.6716 38.5851 71.5 38.5851Z" fill="white"/>
<path d="M71.5 25.7234C72.3284 25.7234 73 26.3878 73 27.2074C73 28.0271 72.3284 28.6915 71.5 28.6915C70.6716 28.6915 70 28.0271 70 27.2074C70 26.3878 70.6716 25.7234 71.5 25.7234Z" fill="white"/>
<path d="M71.5 12.8617C72.3284 12.8617 73 13.5261 73 14.3457C73 15.1654 72.3284 15.8298 71.5 15.8298C70.6716 15.8298 70 15.1654 70 14.3457C70 13.5261 70.6716 12.8617 71.5 12.8617Z" fill="white"/>
<path d="M71.5 3.8147e-05C72.3284 3.8147e-05 73 0.664439 73 1.48404C73 2.30374 72.3284 2.96814 71.5 2.96814C70.6716 2.96814 70 2.30374 70 1.48404C70 0.664439 70.6716 3.8147e-05 71.5 3.8147e-05Z" fill="white"/>
</g>
<defs>
<clipPath id="clip0_2_67">
<rect width="93" height="73" fill="white" transform="matrix(0 -1 1 0 0 93)"/>
</clipPath>
</defs>
</svg>
